<?xml version="1.0" encoding="UTF-8"?>
<svg id="Layer_1" data-name="Layer 1" xmlns="http://www.w3.org/2000/svg" viewBox="0 0 493.84 496.06">
  <defs>
    <style>
      .cls-1 {
        fill: none;
        stroke: #fff;
        stroke-miterlimit: 10;
        stroke-width: 3px;
      }
    </style>
  </defs>
  <path class="cls-1" d="M260.6,208.93c32.99-36.77,65.99-73.55,98.98-110.32l-61.87-28.06-3.12-64.01,27.15,50.42,115.28,14.47c-41.03,61.9-82.07,123.8-123.1,185.7h84.87c29.81-14.11,59.61-28.22,89.42-42.33-21.68,25.59-43.36,51.19-65.05,76.78-35.15,1.82-70.31,3.64-105.46,5.46l13.87,23.53c-.6,33.14-1.21,66.27-1.81,99.41l71.21,16.66,47.62-16.66-36.94,30.69-101.04,3.51-29.38-39.02-14.8-61.82c-14.95-9.06-29.89-18.12-44.84-27.19-34.12,27.91-68.25,55.83-102.37,83.74-1.93,26.89-3.86,53.78-5.79,80.67-14.54-28.5-29.08-57-43.62-85.5,39.76-36.24,79.52-72.49,119.28-108.73-44.81,2.78-89.61,5.55-134.42,8.33l-23.59-59.19,46.73-92.51L7.96,110.02l104.6,21.04-20.92,101.28,89.02,3.95-7.57-99.96,19.58-42.09-66.76-23.24-63.65,13.59,71.66-37.27,110.83,31.57c-2.34,43.73-4.69,87.47-7.03,131.2l22.89-1.15Z"/>
</svg>