<?xml version="1.0" encoding="UTF-8"?>
<svg id="Layer_1" xmlns="http://www.w3.org/2000/svg" version="1.1" viewBox="0 0 493.8 496.1">
  <!-- Generator: Adobe Illustrator 29.0.0, SVG Export Plug-In . SVG Version: 2.1.0 Build 186)  -->
  <defs>
    <style>
      .st0 {
        fill: none;
        stroke: #ec1b33;
        stroke-miterlimit: 10;
        stroke-width: 3px;
      }
    </style>
  </defs>
  <path class="st0" d="M260.6,208.9c33-36.8,66-73.6,99-110.3l-61.9-28.1-3.1-64,27.1,50.4,115.3,14.5c-41,61.9-82.1,123.8-123.1,185.7h84.9c29.8-14.1,59.6-28.2,89.4-42.3-21.7,25.6-43.4,51.2-65,76.8-35.1,1.8-70.3,3.6-105.5,5.5l13.9,23.5c-.6,33.1-1.2,66.3-1.8,99.4l71.2,16.7,47.6-16.7-36.9,30.7-101,3.5-29.4-39-14.8-61.8c-14.9-9.1-29.9-18.1-44.8-27.2-34.1,27.9-68.2,55.8-102.4,83.7-1.9,26.9-3.9,53.8-5.8,80.7-14.5-28.5-29.1-57-43.6-85.5,39.8-36.2,79.5-72.5,119.3-108.7-44.8,2.8-89.6,5.5-134.4,8.3l-23.6-59.2,46.7-92.5L8,110l104.6,21-20.9,101.3,89,3.9-7.6-100,19.6-42.1-66.8-23.2-63.7,13.6,71.7-37.3,110.8,31.6c-2.3,43.7-4.7,87.5-7,131.2l22.9-1.1h0Z"/>
</svg>