<?xml version="1.0" encoding="UTF-8"?>
<svg id="Layer_2" data-name="Layer 2" xmlns="http://www.w3.org/2000/svg" viewBox="0 0 382.97 264.62">
  <defs>
    <style>
      .cls-1 {
        fill: none;
        stroke: #fff;
        stroke-miterlimit: 10;
      }
    </style>
  </defs>
  <path class="cls-1" d="M123.13,90.43l6.48,28.06-12.32,26.03s15.24,5.08,15.49,5.46-7.11,13.33-6.86,13.71l16.38,7.87c.25.38,20.57-1.9,20.57-1.9l-3.05,10.41s15.27-4.57,16.14-4.19,17.76,6.48,17.76,6.48l-2.16-16.38,14.6.13,8.38-11.81-9.4-12.57,22.1.38.76-18.67-21.71-9.27,3.81-10.92-12.83-7.75-1.9-9.78-14.6,1.9-8.63-9.4h-11.94l-13.33-4.83-9.14-1.78-7.87,6.6-6.73,12.83"/>
</svg>