<?xml version="1.0" encoding="UTF-8"?>
<svg id="Asteroid_1" data-name="Asteroid 1" xmlns="http://www.w3.org/2000/svg" viewBox="0 0 382.97 264.62">
  <defs>
    <style>
      .cls-1 {
        fill: #000;
      }

      .cls-1, .cls-2 {
        stroke: #fff;
        stroke-miterlimit: 10;
        stroke-width: 2px;
      }

      .cls-2 {
        fill: none;
      }
    </style>
  </defs>
  <polygon id="Asteroid_1-2" data-name="Asteroid 1" class="cls-1" points="131.06 82.59 115.48 61.1 80.02 86.78 88.54 125.26 123.33 125.9 119.53 157.9 145.68 161.71 142.87 187.35 167.64 165.01 198.56 195.35 243.57 182.28 246.37 153.33 264.91 128.95 239.26 116.25 237.99 92.38 211.83 95.43 182.87 59.35 176.41 81.2 151.02 60.63 131.06 82.59"/>
  <polygon class="cls-2" points="207.96 158.78 210.41 166.33 218.36 166.33 211.93 171 214.38 178.55 207.96 173.88 201.54 178.55 203.99 171 197.57 166.33 205.51 166.33 207.96 158.78"/>
  <polygon class="cls-2" points="197.57 96.07 200.02 103.62 207.96 103.62 201.54 108.29 203.99 115.84 197.57 111.18 191.14 115.84 193.59 108.29 187.17 103.62 195.11 103.62 197.57 96.07"/>
  <polygon class="cls-2" points="135.13 91.86 137.59 99.41 145.53 99.41 139.1 104.08 141.56 111.63 135.13 106.96 128.71 111.63 131.16 104.08 124.74 99.41 132.68 99.41 135.13 91.86"/>
  <polygon class="cls-2" points="162.31 134.15 164.77 141.7 172.71 141.7 166.28 146.37 168.74 153.92 162.31 149.25 155.89 153.92 158.34 146.37 151.92 141.7 159.86 141.7 162.31 134.15"/>
  <polygon class="cls-2" points="224.22 124.26 226.68 131.81 234.62 131.81 228.19 136.48 230.65 144.03 224.22 139.37 217.8 144.03 220.25 136.48 213.83 131.81 221.77 131.81 224.22 124.26"/>
</svg>