<?xml version="1.0" encoding="UTF-8"?>
<svg id="Asteroid_3" data-name="Asteroid 3" xmlns="http://www.w3.org/2000/svg" viewBox="0 0 382.97 264.62">
  <defs>
    <style>
      .cls-1 {
        fill: #000;
      }

      .cls-1, .cls-2 {
        stroke: #fff;
        stroke-miterlimit: 10;
        stroke-width: 2px;
      }

      .cls-2 {
        fill: none;
      }
    </style>
  </defs>
  <path id="Asteroid_3-2" data-name="Asteroid 3" class="cls-1" d="M179.47,52.61l7.24,34.67-34.16-23.49-16.89,42.92s-51.05-13.08-51.05-12.06,25.78,54.98,26.29,56.25-19.3,41.4-19.3,41.4l38.86-19.56,10.16,28.7,29.71-28.95,15.75,24.13,49.78,1.52-15.24-27.17,1.27-20.57,19.81,12.7-1.78-27.23,20.06-4.01-22.86-22.86,22.86-23.37-38.35-6.35,11.17-26.67-30.1,7.75-23.24-7.75Z"/>
  <polygon class="cls-2" points="137.11 115.46 139.57 123.01 147.51 123.01 141.08 127.68 143.54 135.23 137.11 130.56 130.69 135.23 133.14 127.68 126.72 123.01 134.66 123.01 137.11 115.46"/>
  <polygon class="cls-2" points="177.96 95.68 180.41 103.24 188.36 103.24 181.93 107.9 184.38 115.46 177.96 110.79 171.54 115.46 173.99 107.9 167.57 103.24 175.51 103.24 177.96 95.68"/>
  <polygon class="cls-2" points="220.37 92.34 222.83 99.9 230.77 99.9 224.34 104.56 226.8 112.12 220.37 107.45 213.95 112.12 216.4 104.56 209.98 99.9 217.92 99.9 220.37 92.34"/>
  <polygon class="cls-2" points="161.9 144.15 164.36 151.71 172.3 151.71 165.87 156.37 168.33 163.93 161.9 159.26 155.48 163.93 157.93 156.37 151.51 151.71 159.45 151.71 161.9 144.15"/>
  <polygon class="cls-2" points="198.75 130.44 201.2 137.99 209.15 137.99 202.72 142.66 205.17 150.21 198.75 145.54 192.33 150.21 194.78 142.66 188.36 137.99 196.3 137.99 198.75 130.44"/>
</svg>