<?xml version="1.0" encoding="UTF-8"?>
<svg id="Asteroid_2" data-name="Asteroid 2" xmlns="http://www.w3.org/2000/svg" viewBox="0 0 382.97 264.62">
  <defs>
    <style>
      .cls-1 {
        fill: #000;
      }

      .cls-1, .cls-2 {
        stroke: #fff;
        stroke-miterlimit: 10;
        stroke-width: 2px;
      }

      .cls-2 {
        fill: none;
      }
    </style>
  </defs>
  <path id="Asteroid_2-2" data-name="Asteroid 2" class="cls-1" d="M123.13,90.43l6.48,28.06-12.32,26.03s15.24,5.08,15.49,5.46-7.11,13.33-6.86,13.71l16.38,7.87c.25.38,20.57-1.9,20.57-1.9l-3.05,10.41s15.27-4.57,16.14-4.19,17.76,6.48,17.76,6.48l-2.16-16.38,14.6.13,8.38-11.81-9.4-12.57,22.1.38.76-18.67-21.71-9.27,3.81-10.92-12.83-7.75-1.9-9.78-14.6,1.9-8.63-9.4h-11.94l-13.33-4.83-9.14-1.78-7.87,6.6-6.73,12.83"/>
  <polygon class="cls-2" points="144.18 83.96 146.64 91.52 154.58 91.52 148.15 96.18 150.61 103.74 144.18 99.07 137.76 103.74 140.21 96.18 133.79 91.52 141.73 91.52 144.18 83.96"/>
  <polygon class="cls-2" points="186.15 101.09 188.6 108.65 196.54 108.65 190.12 113.31 192.57 120.87 186.15 116.2 179.72 120.87 182.18 113.31 175.75 108.65 183.69 108.65 186.15 101.09"/>
  <polygon class="cls-2" points="148.07 127.49 150.52 135.04 158.46 135.04 152.04 139.71 154.49 147.26 148.07 142.6 141.64 147.26 144.1 139.71 137.67 135.04 145.62 135.04 148.07 127.49"/>
  <polygon class="cls-2" points="186.15 136.53 188.6 144.09 196.54 144.09 190.12 148.75 192.57 156.31 186.15 151.64 179.72 156.31 182.18 148.75 175.75 144.09 183.69 144.09 186.15 136.53"/>
</svg>