<?xml version="1.0" encoding="UTF-8"?>
<svg id="Layer_2" data-name="Layer 2" xmlns="http://www.w3.org/2000/svg" viewBox="0 0 192.27 224.96">
  <defs>
    <style>
      .cls-1 {
        fill: #000;
        stroke-width: 0px;
      }

      .cls-2 {
        fill: none;
        stroke: #fff;
        stroke-miterlimit: 10;
        stroke-width: 2px;
      }
    </style>
  </defs>
  <g>
    <polygon class="cls-1" points="90.32 23.16 123.63 143.58 107.1 150.97 107.1 160.49 103.57 160.49 107.1 165.61 92.23 165.48 95.38 160.49 90.32 160.49 90.32 23.16"/>
    <polygon class="cls-1" points="90.32 23.16 57.01 143.58 73.54 150.97 73.54 160.49 77.06 160.49 73.54 165.61 88.41 165.48 85.26 160.49 90.32 160.49 90.32 23.16"/>
  </g>
  <g>
    <g>
      <polyline class="cls-2" points="106.22 126.68 90.29 150.97 107.34 150.97 124.39 143.35 90.29 22.21"/>
      <polyline class="cls-2" points="90.29 160.49 103.82 160.49 107.34 160.49 107.34 150.97 103.57 69.38"/>
      <polyline class="cls-2" points="103.82 160.49 107.34 165.61 92.39 165.61 95.62 160.49"/>
      <line class="cls-2" x1="90.29" y1="128.49" x2="90.29" y2="107.67"/>
    </g>
    <g>
      <polyline class="cls-2" points="74.66 126.68 90.59 150.97 73.54 150.97 56.49 143.35 90.59 22.21"/>
      <polyline class="cls-2" points="90.59 160.49 77.06 160.49 73.54 160.49 73.54 150.97 77.31 69.38"/>
      <polyline class="cls-2" points="77.06 160.49 73.54 165.61 88.49 165.61 85.26 160.49"/>
      <line class="cls-2" x1="90.59" y1="128.49" x2="90.59" y2="107.67"/>
    </g>
  </g>
</svg>