<?xml version="1.0" encoding="UTF-8"?>
<svg xmlns="http://www.w3.org/2000/svg" viewBox="0 0 152.86 192.12">
  <defs>
    <style>
      .cls-1 {
        fill: #000;
        stroke: #000;
      }

      .cls-1, .cls-2 {
        stroke-miterlimit: 10;
      }

      .cls-2 {
        fill: none;
        stroke: #fff;
      }
    </style>
  </defs>
  <g id="Backdrop">
    <rect class="cls-1" x=".5" y=".5" width="151.86" height="191.12"/>
  </g>
  <g id="Layer_2" data-name="Layer 2">
    <g>
      <polyline class="cls-2" points="78 20.31 112.1 141.45 95.05 149.07 78 149.07 93.93 124.78"/>
      <polyline class="cls-2" points="78.15 20.31 44.06 141.45 61.11 149.07 78.15 149.07 62.23 124.78"/>
    </g>
    <g>
      <polyline class="cls-2" points="78.15 158.6 91.68 158.6 95.2 158.6 95.2 149.07 91.49 68.69"/>
      <polyline class="cls-2" points="78.15 158.6 64.63 158.6 61.11 158.6 61.11 149.07 64.82 68.69"/>
    </g>
    <g>
      <polyline class="cls-2" points="91.3 158.6 94.83 163.72 79.87 163.72 83.11 158.6"/>
      <polyline class="cls-2" points="64.63 158.6 61.11 163.72 76.06 163.72 72.82 158.6"/>
    </g>
    <line class="cls-2" x1="78.15" y1="126.6" x2="78.15" y2="105.77"/>
  </g>
</svg>