<?xml version="1.0" encoding="UTF-8"?>
<svg id="Layer_2" data-name="Layer 2" xmlns="http://www.w3.org/2000/svg" viewBox="0 0 152.86 192.12">
  <defs>
    <style>
      .cls-1 {
        fill: none;
        stroke: #fff;
        stroke-miterlimit: 10;
      }
    </style>
  </defs>
  <g>
    <polyline class="cls-1" points="78 20.31 112.1 141.45 95.05 149.07 78 149.07 93.93 124.78"/>
    <polyline class="cls-1" points="78.15 20.31 44.06 141.45 61.11 149.07 78.15 149.07 62.23 124.78"/>
  </g>
  <g>
    <polyline class="cls-1" points="78.15 158.6 91.68 158.6 95.2 158.6 95.2 149.07 91.49 68.69"/>
    <polyline class="cls-1" points="78.15 158.6 64.63 158.6 61.11 158.6 61.11 149.07 64.82 68.69"/>
  </g>
  <g>
    <polyline class="cls-1" points="91.3 158.6 94.83 163.72 79.87 163.72 83.11 158.6"/>
    <polyline class="cls-1" points="64.63 158.6 61.11 163.72 76.06 163.72 72.82 158.6"/>
  </g>
  <line class="cls-1" x1="78.15" y1="126.6" x2="78.15" y2="105.77"/>
</svg>