<?xml version="1.0" encoding="UTF-8"?>
<svg id="Layer_2" data-name="Layer 2" xmlns="http://www.w3.org/2000/svg" viewBox="0 0 68.34 144.68">
  <defs>
    <style>
      .cls-1 {
        fill: #000;
        stroke-width: 0px;
      }

      .cls-2 {
        fill: none;
        stroke: #fff;
        stroke-miterlimit: 10;
        stroke-width: 2px;
      }
    </style>
  </defs>
  <g>
    <polygon class="cls-1" points="35.02 1.23 68.34 121.64 51.8 129.03 51.8 138.56 48.28 138.56 51.8 143.68 36.93 143.54 40.09 138.56 35.02 138.56 35.02 1.23"/>
    <polygon class="cls-1" points="35.02 1.23 1.71 121.64 18.24 129.03 18.24 138.56 21.77 138.56 18.24 143.68 33.11 143.54 29.96 138.56 35.02 138.56 35.02 1.23"/>
  </g>
  <g>
    <g>
      <polyline class="cls-2" points="50.92 104.74 34.99 129.03 52.04 129.03 69.09 121.41 34.99 .27"/>
      <polyline class="cls-2" points="34.99 138.56 48.52 138.56 52.04 138.56 52.04 129.03 48.27 47.45"/>
      <polyline class="cls-2" points="48.52 138.56 52.04 143.68 37.09 143.68 40.33 138.56"/>
      <line class="cls-2" x1="34.99" y1="106.56" x2="34.99" y2="85.73"/>
    </g>
    <g>
      <polyline class="cls-2" points="19.37 104.74 35.29 129.03 18.24 129.03 1.2 121.41 35.29 .27"/>
      <polyline class="cls-2" points="35.29 138.56 21.77 138.56 18.24 138.56 18.24 129.03 22.01 47.45"/>
      <polyline class="cls-2" points="21.77 138.56 18.24 143.68 33.2 143.68 29.96 138.56"/>
      <line class="cls-2" x1="35.29" y1="106.56" x2="35.29" y2="85.73"/>
    </g>
  </g>
</svg>