<?xml version="1.0" encoding="UTF-8"?>
<svg id="Layer_2" data-name="Layer 2" xmlns="http://www.w3.org/2000/svg" viewBox="0 0 192.27 224.96">
  <defs>
    <style>
      .cls-1 {
        fill: #000;
        stroke-width: 0px;
      }

      .cls-2 {
        fill: none;
        stroke: #fff;
        stroke-miterlimit: 10;
        stroke-width: 2px;
      }
    </style>
  </defs>
  <g>
    <polygon class="cls-1" points="88.59 23.16 121.91 143.58 105.37 150.97 105.37 160.49 101.85 160.49 105.37 165.61 90.5 165.48 93.66 160.49 88.59 160.49 88.59 23.16"/>
    <polygon class="cls-1" points="88.59 23.16 55.28 143.58 71.82 150.97 71.82 160.49 75.34 160.49 71.82 165.61 86.68 165.48 83.53 160.49 88.59 160.49 88.59 23.16"/>
  </g>
  <g>
    <g>
      <polyline class="cls-2" points="104.49 126.68 88.57 150.97 105.61 150.97 122.66 143.35 88.57 22.21"/>
      <polyline class="cls-2" points="88.57 160.49 102.09 160.49 105.61 160.49 105.61 150.97 101.84 69.38"/>
      <polyline class="cls-2" points="102.09 160.49 105.61 165.61 90.66 165.61 93.9 160.49"/>
      <line class="cls-2" x1="88.57" y1="128.49" x2="88.57" y2="107.67"/>
    </g>
    <g>
      <polyline class="cls-2" points="72.94 126.68 88.86 150.97 71.82 150.97 54.77 143.35 88.86 22.21"/>
      <polyline class="cls-2" points="88.86 160.49 75.34 160.49 71.82 160.49 71.82 150.97 75.59 69.38"/>
      <polyline class="cls-2" points="75.34 160.49 71.82 165.61 86.77 165.61 83.53 160.49"/>
      <line class="cls-2" x1="88.86" y1="128.49" x2="88.86" y2="107.67"/>
    </g>
  </g>
</svg>