<?xml version="1.0" encoding="UTF-8"?>
<svg id="Layer_1" data-name="Layer 1" xmlns="http://www.w3.org/2000/svg" viewBox="0 0 1200 1200">
  <defs>
    <style>
      .cls-1 {
        fill: #fff;
      }
    </style>
  </defs>
  <path class="cls-1" d="M600,4c80.46,0,158.51,15.76,231.99,46.83,35.31,14.94,69.38,33.42,101.24,54.95,31.56,21.32,61.24,45.81,88.21,72.78,26.97,26.97,51.46,56.65,72.78,88.21,21.53,31.86,40.01,65.92,54.95,101.24,31.08,73.48,46.83,151.53,46.83,231.99s-15.76,158.51-46.83,231.99c-14.94,35.31-33.42,69.38-54.95,101.24-21.32,31.56-45.81,61.24-72.78,88.21s-56.65,51.46-88.21,72.78c-31.86,21.53-65.92,40.01-101.24,54.95-73.48,31.08-151.53,46.83-231.99,46.83s-158.51-15.76-231.99-46.83c-35.31-14.94-69.38-33.42-101.24-54.95-31.56-21.32-61.24-45.81-88.21-72.78-26.97-26.97-51.46-56.65-72.78-88.21-21.53-31.86-40.01-65.92-54.95-101.24-31.08-73.48-46.83-151.53-46.83-231.99s15.76-158.51,46.83-231.99c14.94-35.31,33.42-69.38,54.95-101.24,21.32-31.56,45.81-61.24,72.78-88.21,26.97-26.97,56.65-51.46,88.21-72.78,31.86-21.53,65.92-40.01,101.24-54.95,73.48-31.08,151.53-46.83,231.99-46.83M600,0C268.63,0,0,268.63,0,600s268.63,600,600,600,600-268.63,600-600S931.37,0,600,0h0Z"/>
</svg>