<?xml version="1.0" encoding="UTF-8"?>
<svg id="Layer_1" data-name="Layer 1" xmlns="http://www.w3.org/2000/svg" viewBox="0 0 4096 4096">
  <defs>
    <style>
      .cls-1 {
        fill: #404040;
      }
    </style>
  </defs>
  <path class="cls-1" d="M2048,1c138.89,0,277.69,13.99,412.54,41.59,131.43,26.89,260.71,67.02,384.24,119.28,121.29,51.3,238.28,114.8,347.71,188.73,108.39,73.23,210.32,157.33,302.95,249.96,92.63,92.63,176.73,194.56,249.96,302.95,73.93,109.43,137.43,226.42,188.73,347.71,52.25,123.54,92.38,252.81,119.28,384.24,27.6,134.86,41.59,273.66,41.59,412.54s-13.99,277.69-41.59,412.54c-26.89,131.43-67.02,260.71-119.28,384.24-51.3,121.29-114.8,238.28-188.73,347.71-73.23,108.39-157.33,210.32-249.96,302.95s-194.56,176.73-302.95,249.96c-109.43,73.93-226.42,137.43-347.71,188.73-123.54,52.25-252.81,92.38-384.24,119.28-134.86,27.6-273.66,41.59-412.54,41.59s-277.69-13.99-412.54-41.59c-131.43-26.89-260.71-67.02-384.24-119.28-121.29-51.3-238.28-114.8-347.71-188.73-108.39-73.23-210.32-157.33-302.95-249.96s-176.73-194.56-249.96-302.95c-73.93-109.43-137.43-226.42-188.73-347.71-52.25-123.54-92.38-252.81-119.28-384.24C14.99,2325.69,1,2186.89,1,2048s13.99-277.69,41.59-412.54c26.89-131.43,67.02-260.71,119.28-384.24,51.3-121.29,114.8-238.28,188.73-347.71,73.23-108.39,157.33-210.32,249.96-302.95,92.63-92.63,194.56-176.73,302.95-249.96,109.43-73.93,226.42-137.43,347.71-188.73,123.54-52.25,252.81-92.38,384.24-119.28C1770.31,14.99,1909.11,1,2048,1M2048,0C916.92,0,0,916.92,0,2048s916.92,2048,2048,2048,2048-916.92,2048-2048S3179.08,0,2048,0h0Z"/>
</svg>