<?xml version="1.0" encoding="UTF-8"?>
<svg id="Layer_1" data-name="Layer 1" xmlns="http://www.w3.org/2000/svg" viewBox="0 0 1024 1024">
  <defs>
    <style>
      .cls-1 {
        fill: #fff;
      }

      .cls-2, .cls-3 {
        opacity: .25;
      }

      .cls-4 {
        stroke-width: 12px;
      }

      .cls-4, .cls-3 {
        fill: none;
        stroke: #fff;
        stroke-miterlimit: 10;
      }

      .cls-3 {
        stroke-width: 5px;
      }
    </style>
  </defs>
  <g class="cls-2">
    <path class="cls-1" d="M512,5c68.45,0,134.84,13.4,197.35,39.84,60.37,25.54,114.59,62.09,161.16,108.66,46.56,46.56,83.12,100.78,108.66,161.16,26.44,62.5,39.84,128.9,39.84,197.35s-13.4,134.84-39.84,197.35c-25.54,60.37-62.09,114.59-108.66,161.16-46.56,46.56-100.78,83.12-161.16,108.66-62.5,26.44-128.9,39.84-197.35,39.84s-134.84-13.4-197.35-39.84c-60.37-25.54-114.59-62.09-161.16-108.66-46.56-46.56-83.12-100.78-108.66-161.16-26.44-62.5-39.84-128.9-39.84-197.35s13.4-134.84,39.84-197.35c25.54-60.37,62.09-114.59,108.66-161.16s100.78-83.12,161.16-108.66c62.5-26.44,128.9-39.84,197.35-39.84M512,0C229.23,0,0,229.23,0,512s229.23,512,512,512,512-229.23,512-512S794.77,0,512,0h0Z"/>
  </g>
  <path class="cls-3" d="M770.13,238.7c-67.34-63.63-158.18-102.64-258.13-102.64s-190.79,39.01-258.13,102.64"/>
  <line class="cls-4" x1="235.33" y1="220.32" x2="272.4" y2="257.09"/>
  <line class="cls-4" x1="751.6" y1="257.09" x2="788.67" y2="220.32"/>
</svg>